Coordinates
version=1
nRows=30
nColumns=38
inDegrees=no

Units are S.I. units (second, meters, Newtons, ...)
If the header above contains a line with 'inDegrees', this indicates whether rotational values are in degrees (yes) or radians (no).

endheader
time	pelvis_tilt	pelvis_list	pelvis_rotation	pelvis_tx	pelvis_ty	pelvis_tz	hip_flexion_r	hip_adduction_r	hip_rotation_r	knee_angle_r	ankle_angle_r	subtalar_angle_r	mtp_angle_r	hip_flexion_l	hip_adduction_l	hip_rotation_l	knee_angle_l	ankle_angle_l	subtalar_angle_l	mtp_angle_l	lumbar_extension	lumbar_bending	lumbar_rotation	arm_flex_r	arm_add_r	arm_rot_r	elbow_flex_r	pro_sup_r	wrist_flex_r	wrist_dev_r	arm_flex_l	arm_add_l	arm_rot_l	elbow_flex_l	pro_sup_l	wrist_flex_l	wrist_dev_l
0.05	-0.0470678	-0.116322	0.0604722	0.926688	1.14255	-0.626425	0.945781	0.00401133	-0.326476	-1.58292	0.41115	0.0999993	5.49557e-06	-0.169962	-0.170974	-0.348812	-0.569009	0.502871	0.0889053	2.35262e-07	-0.249731	0.143352	-0.341393	-0.845637	-0.307776	-0.258632	1.8043	2.11769	-0.0135184	-0.0240283	0.0331754	-0.404685	0.0444057	2.21092	1.8939	0.025745	-0.012019
0.058333	-0.051962	-0.11783	0.0505048	0.930612	1.14645	-0.626973	0.93528	0.0111729	-0.327456	-1.45345	0.416028	0.0999993	5.49557e-06	-0.231931	-0.16441	-0.393391	-0.488794	0.345745	0.0889053	2.35262e-07	-0.232035	0.148421	-0.343943	-0.882935	-0.299938	-0.276732	1.8218	2.11213	-0.0135184	-0.0240283	0.0169714	-0.387175	0.0530634	2.23764	1.86914	0.025745	-0.012019
0.066667	-0.0581083	-0.11615	0.0410926	0.934175	1.14958	-0.627268	0.923683	0.0162364	-0.330019	-1.32525	0.42455	0.0999993	5.49557e-06	-0.283555	-0.155448	-0.426034	-0.427675	0.217666	0.0889053	2.35262e-07	-0.21411	0.149761	-0.346164	-0.914758	-0.292076	-0.293979	1.83676	2.10789	-0.0135184	-0.0240283	0.000544474	-0.371905	0.0618055	2.26058	1.84469	0.025745	-0.012019
0.075	-0.0654483	-0.111365	0.0322611	0.937354	1.1519	-0.627424	0.911016	0.0192376	-0.33423	-1.19858	0.436626	0.0999993	5.49557e-06	-0.324878	-0.144192	-0.446798	-0.385708	0.118627	0.0889053	2.35262e-07	-0.196016	0.147464	-0.348039	-0.941079	-0.284216	-0.310343	1.84915	2.10491	-0.0135184	-0.0240283	-0.0160853	-0.358852	0.0706306	2.27971	1.82068	0.025745	-0.012019
0.083333	-0.0737851	-0.103746	0.0240757	0.94013	1.15341	-0.627533	0.897324	0.0203137	-0.340273	-1.07422	0.451912	0.0999993	5.49557e-06	-0.356064	-0.130962	-0.455919	-0.36301	0.0483242	0.0889053	2.35262e-07	-0.177965	0.14185	-0.3495	-0.961831	-0.276442	-0.325728	1.85895	2.10304	-0.0135184	-0.0240283	-0.032853	-0.34794	0.0795308	2.29492	1.79743	0.025745	-0.012019
0.091667	-0.0827365	-0.0938194	0.0166306	0.942499	1.15414	-0.627669	0.882657	0.0197345	-0.348466	-0.953697	0.469695	0.0999993	5.49557e-06	-0.377482	-0.116325	-0.45389	-0.359629	0.0055328	0.0889053	2.35262e-07	-0.16041	0.133559	-0.3504	-0.976903	-0.268936	-0.339967	1.86609	2.10198	-0.0135184	-0.0240283	-0.049631	-0.339005	0.0884835	2.30604	1.77555	0.025745	-0.012019
0.1	-0.0917131	-0.0824195	0.0100037	0.94447	1.15416	-0.627885	0.867036	0.0179276	-0.359141	-0.839241	0.488764	0.0999993	5.49557e-06	-0.38976	-0.101068	-0.441672	-0.375399	-0.0125382	0.0889053	2.35262e-07	-0.14407	0.123552	-0.350488	-0.98617	-0.261992	-0.352841	1.87061	2.10134	-0.0135184	-0.0240283	-0.0662306	-0.331792	0.0974403	2.31291	1.75584	0.025745	-0.012019
0.108333	-0.0999546	-0.0706042	0.00419734	0.946054	1.15354	-0.628216	0.850435	0.0155029	-0.372422	-0.733575	0.507377	0.0999993	5.49557e-06	-0.393779	-0.0861364	-0.420906	-0.409823	-0.0104894	0.0889053	2.35262e-07	-0.129893	0.113042	-0.349402	-0.989535	-0.256005	-0.364123	1.87259	2.10074	-0.0135184	-0.0240283	-0.0824254	-0.325964	0.106317	2.31538	1.73916	0.025745	-0.012019
0.116667	-0.106627	-0.0595379	-0.000893593	0.947263	1.15239	-0.628662	0.832755	0.0132117	-0.388069	-0.639536	0.52346	0.0999993	5.49557e-06	-0.390636	-0.0725284	-0.393878	-0.461964	0.00562951	0.0889053	2.35262e-07	-0.118936	0.103354	-0.346692	-0.986993	-0.251438	-0.373639	1.8723	2.0999	-0.0135184	-0.0240283	-0.0979941	-0.321138	0.114988	2.31342	1.72622	0.025745	-0.012019
0.125	-0.110943	-0.0503533	-0.00548149	0.9481	1.15079	-0.629192	0.813825	0.0118571	-0.405431	-0.55965	0.534942	0.0999993	5.49557e-06	-0.381577	-0.061189	-0.363252	-0.530385	0.0291914	0.0889053	2.35262e-07	-0.11221	0.0957538	-0.341873	-0.978687	-0.248768	-0.381318	1.87017	2.09875	-0.0135184	-0.0240283	-0.112771	-0.316934	0.123291	2.30718	1.71742	0.025745	-0.012019
0.133333	-0.112296	-0.044027	-0.0098652	0.948566	1.14882	-0.629753	0.793435	0.0122502	-0.423371	-0.49574	0.540078	0.0999993	5.49557e-06	-0.367901	-0.0529554	-0.331882	-0.613164	0.054039	0.0889053	2.35262e-07	-0.110507	0.0912909	-0.334481	-0.964942	-0.248435	-0.387211	1.86679	2.09741	-0.0135184	-0.0240283	-0.126692	-0.313022	0.131033	2.29696	1.71273	0.025745	-0.012019
0.141667	-0.110365	-0.041272	-0.0143974	0.948659	1.14653	-0.630272	0.771426	0.0151634	-0.440257	-0.448708	0.537718	0.0999993	5.49557e-06	-0.350854	-0.0485165	-0.302554	-0.707971	0.0753779	0.0889053	2.35262e-07	-0.11426	0.0906625	-0.324125	-0.946256	-0.250798	-0.391462	1.86286	2.09617	-0.0135184	-0.0240283	-0.139813	-0.309166	0.138014	2.28317	1.71167	0.025745	-0.012019
0.15	-0.105173	-0.0424628	-0.019444	0.948379	1.14393	-0.630673	0.747813	0.0212434	-0.45417	-0.418559	0.527505	0.0999993	5.49557e-06	-0.331501	-0.0483669	-0.277661	-0.812204	0.0903	0.0889053	2.35262e-07	-0.123461	0.0941323	-0.310532	-0.923229	-0.256103	-0.394247	1.85907	2.09545	-0.0135184	-0.0240283	-0.152298	-0.305248	0.144048	2.2663	1.71334	0.025745	-0.012019
0.158333	-0.0970856	-0.0476042	-0.0253345	0.947735	1.14098	-0.630893	0.722906	0.0308796	-0.463327	-0.404651	0.510051	0.0999993	5.49557e-06	-0.310608	-0.0527468	-0.258865	-0.923159	0.0978744	0.0889053	2.35262e-07	-0.137665	0.10151	-0.293589	-0.896466	-0.264476	-0.395677	1.85598	2.09566	-0.0135184	-0.0240283	-0.164372	-0.301275	0.149002	2.24679	1.71661	0.025745	-0.012019
0.166667	-0.0867619	-0.0563528	-0.032314	0.94674	1.13761	-0.630889	0.697376	0.0441282	-0.46637	-0.406011	0.487095	0.0999993	5.49557e-06	-0.288542	-0.0616193	-0.246944	-1.03823	0.0989186	0.0889053	2.35262e-07	-0.156052	0.112198	-0.273364	-0.866452	-0.275918	-0.395723	1.85392	2.09721	-0.0135184	-0.0240283	-0.176246	-0.297359	0.152824	2.22494	1.72017	0.025745	-0.012019
0.175	-0.0750724	-0.0680821	-0.0405015	0.945401	1.13376	-0.630644	0.672223	0.0606899	-0.46258	-0.421592	0.461581	0.0999993	5.49557e-06	-0.26521	-0.0746645	-0.241742	-1.15508	0.0955157	0.0889053	2.35262e-07	-0.177549	0.125305	-0.250121	-0.833452	-0.290306	-0.394172	1.85289	2.10027	-0.0135184	-0.0240283	-0.188048	-0.293677	0.155566	2.20082	1.72276	0.025745	-0.012019
0.183333	-0.0629873	-0.0819774	-0.0498622	0.943714	1.12935	-0.630168	0.648627	0.0799442	-0.452017	-0.450334	0.43752	0.0999993	5.49557e-06	-0.240057	-0.0912908	-0.242219	-1.27175	0.0903609	0.0889053	2.35262e-07	-0.200959	0.139792	-0.224305	-0.797441	-0.307405	-0.390625	1.85256	2.10468	-0.0135184	-0.0240283	-0.199768	-0.290434	0.157386	2.17429	1.72335	0.025745	-0.012019
0.191667	-0.0514554	-0.097157	-0.0602075	0.94166	1.12434	-0.629505	0.627687	0.101067	-0.435407	-0.490993	0.419459	0.0999993	5.49557e-06	-0.212119	-0.11069	-0.246637	-1.38667	0.0861182	0.0889053	2.35262e-07	-0.225087	0.154625	-0.196506	-0.758127	-0.326876	-0.384561	1.85233	2.10982	-0.0135184	-0.0240283	-0.211249	-0.287816	0.158545	2.14504	1.72128	0.025745	-0.012019
0.2	-0.0413055	-0.112786	-0.0712099	0.93921	1.11881	-0.628719	0.610117	0.123139	-0.414049	-0.541834	0.411647	0.0999993	5.49557e-06	-0.180161	-0.131928	-0.252854	-1.49862	0.0849325	0.0889053	2.35262e-07	-0.248848	0.168913	-0.167395	-0.715033	-0.348298	-0.375445	1.85145	2.11462	-0.0135184	-0.0240283	-0.22222	-0.285971	0.159384	2.11272	1.71638	0.025745	-0.012019
0.208333	-0.0331615	-0.128151	-0.0824339	0.936338	1.11294	-0.627888	0.595984	0.145227	-0.389685	-0.600389	0.417119	0.0999993	5.49557e-06	-0.142876	-0.154037	-0.258638	-1.6066	0.0881605	0.0889053	2.35262e-07	-0.271338	0.181998	-0.137658	-0.667673	-0.371195	-0.362855	1.84924	2.11772	-0.0135184	-0.0240283	-0.232367	-0.284988	0.160302	2.07713	1.709	0.025745	-0.012019
0.216667	-0.0273771	-0.14269	-0.0933888	0.933044	1.10698	-0.627095	0.584585	0.166453	-0.364166	-0.663371	0.436969	0.0999993	5.49557e-06	-0.0991181	-0.176082	-0.261968	-1.70965	0.0963319	0.0889053	2.35262e-07	-0.29188	0.193477	-0.107923	-0.615757	-0.395062	-0.346629	1.84535	2.11778	-0.0135184	-0.0240283	-0.241424	-0.28491	0.161723	2.03842	1.69985	0.025745	-0.012019
0.225	-0.0240317	-0.155987	-0.103595	0.929365	1.1011	-0.626406	0.574514	0.185974	-0.339266	-0.726935	0.470155	0.0999993	5.49557e-06	-0.0481266	-0.197177	-0.261284	-1.80677	0.109243	0.0889053	2.35262e-07	-0.310041	0.203153	-0.078683	-0.559382	-0.419401	-0.326972	1.8399	2.11371	-0.0135184	-0.0240283	-0.249264	-0.28575	0.164048	1.99726	1.68992	0.025745	-0.012019
0.233333	-0.0229606	-0.167698	-0.112667	0.92536	1.09542	-0.625869	0.563937	0.202927	-0.316545	-0.787204	0.513893	0.0999993	5.49557e-06	0.010306	-0.216479	-0.255668	-1.89676	0.126117	0.0889053	2.35262e-07	-0.325607	0.210928	-0.0502457	-0.499167	-0.44373	-0.304527	1.83366	2.10495	-0.0135184	-0.0240283	-0.255971	-0.287522	0.167594	1.95499	1.68026	0.025745	-0.012019
0.241667	-0.0238406	-0.177476	-0.12041	0.921108	1.09002	-0.625504	0.55099	0.216424	-0.297138	-0.840849	0.564445	0.0999993	5.49557e-06	0.0757764	-0.233197	-0.244987	-1.97828	0.145839	0.0889053	2.35262e-07	-0.338519	0.216673	-0.0226915	-0.436267	-0.467581	-0.280366	1.82801	2.0916	-0.0135184	-0.0240283	-0.261878	-0.290274	0.172534	1.91353	1.6719	0.025745	-0.012019
0.25	-0.0262762	-0.184935	-0.126886	0.916729	1.085	-0.625304	0.534168	0.225573	-0.281608	-0.88553	0.617923	0.0999993	5.49557e-06	0.147318	-0.246599	-0.229922	-2.04986	0.167119	0.0889053	2.35262e-07	-0.348762	0.220097	0.00412195	-0.372279	-0.490491	-0.255897	1.82474	2.0745	-0.0135184	-0.0240283	-0.267547	-0.294104	0.178853	1.87526	1.66577	0.025745	-0.012019
0.258333	-0.0298889	-0.189576	-0.132438	0.912392	1.08048	-0.625237	0.512595	0.229547	-0.269887	-0.920064	0.670897	0.0999993	5.49557e-06	0.223529	-0.256056	-0.211884	-2.11004	0.188625	0.0889053	2.35262e-07	-0.356263	0.220714	0.0305123	-0.309058	-0.511985	-0.2327	1.82584	2.05515	-0.0135184	-0.0240283	-0.273707	-0.299149	0.186329	1.84264	1.66268	0.025745	-0.012019
0.266667	-0.0344206	-0.190809	-0.137621	0.908275	1.07657	-0.625248	0.486075	0.227648	-0.261369	-0.944308	0.720663	0.0999993	5.49557e-06	0.302731	-0.261121	-0.192828	-2.15747	0.209191	0.0889053	2.35262e-07	-0.36083	0.217868	0.056876	-0.24848	-0.531574	-0.212305	1.83305	2.03552	-0.0135184	-0.0240283	-0.281153	-0.305554	0.194563	1.81787	1.66327	0.025745	-0.012019
0.275	-0.0397513	-0.188039	-0.143071	0.90454	1.07335	-0.625272	0.454972	0.219367	-0.255126	-0.958821	0.765188	0.0999993	5.49557e-06	0.383133	-0.261598	-0.174974	-2.19107	0.228026	0.0889053	2.35262e-07	-0.36215	0.21084	0.0835616	-0.192227	-0.548776	-0.195949	1.84766	2.01764	-0.0135184	-0.0240283	-0.290645	-0.313425	0.203019	1.80249	1.668	0.025745	-0.012019
0.283333	-0.0458594	-0.180767	-0.149339	0.901325	1.07085	-0.625246	0.419973	0.204465	-0.250169	-0.964427	0.80281	0.0999993	5.49557e-06	0.462972	-0.257574	-0.160459	-2.21012	0.244777	0.0889053	2.35262e-07	-0.35984	0.199011	0.110743	-0.141605	-0.563154	-0.184363	1.87021	2.00321	-0.0135184	-0.0240283	-0.302816	-0.322769	0.211079	1.79715	1.67701	0.025745	-0.012019
0.291667	-0.0527516	-0.168699	-0.156721	0.898756	1.0691	-0.625122	0.381811	0.183	-0.245779	-0.961847	0.831989	0.0999993	5.49557e-06	0.540604	-0.249397	-0.151009	-2.21432	0.259537	0.0889053	2.35262e-07	-0.353543	0.182023	0.138324	-0.0974498	-0.574362	-0.177627	1.90047	1.99313	-0.0135184	-0.0240283	-0.318126	-0.333463	0.218093	1.80155	1.69004	0.025745	-0.012019
